<svg width="16" height="10" viewBox="0 0 16 10" fill="none" xmlns="http://www.w3.org/2000/svg">
<path opacity="0.4" d="M4.8354 5.99178L1.75271 6.2644C1.0609 6.2644 0.5 5.69804 0.5 4.99949C0.5 4.30094 1.0609 3.73457 1.75271 3.73457L4.8354 4.0072C5.37812 4.0072 5.81812 4.45148 5.81812 4.99949C5.81812 5.54841 5.37812 5.99178 4.8354 5.99178Z" fill="#374BFF"/>
<path d="M15.1874 5.9418C15.1392 5.99045 14.9592 6.19607 14.7901 6.36681C13.8038 7.4362 11.2283 9.18487 9.88108 9.72003C9.67654 9.8054 9.15927 9.98715 8.882 10C8.61746 10 8.36474 9.9385 8.12383 9.81733C7.82292 9.64751 7.58293 9.37947 7.4502 9.0637C7.36566 8.84524 7.23293 8.18891 7.23293 8.17698C7.10111 7.46007 7.0293 6.29429 7.0293 5.00551C7.0293 3.77914 7.10111 2.6611 7.20929 1.93226C7.22111 1.9194 7.35384 1.1052 7.49838 0.826143C7.76292 0.31577 8.28019 0 8.83382 0H8.882C9.24291 0.0119333 10.0011 0.328622 10.0011 0.339637C11.2765 0.874794 13.791 2.53901 14.8019 3.64513C14.8019 3.64513 15.0874 3.92969 15.211 4.10685C15.4037 4.36203 15.5001 4.6778 15.5001 4.99357C15.5001 5.34606 15.3919 5.67377 15.1874 5.9418Z" fill="#374BFF"/>
</svg>
