<svg width="20" height="20" viewBox="0 0 20 20" fill="none" xmlns="http://www.w3.org/2000/svg">
<path d="M9.05604 6.01162L12.572 11.7184C12.6504 11.8462 12.6429 12.0098 12.5504 12.1295C12.1329 12.6717 11.7095 13.1561 11.3536 13.4793C11.3536 13.4793 11.0686 13.7577 10.8878 13.8782C10.6411 14.0727 10.3186 14.1663 10.0052 14.1663C9.65357 14.1663 9.32105 14.0638 9.0552 13.8594C9.0077 13.813 8.79852 13.6364 8.62768 13.4695C7.56429 12.4958 5.80754 9.95425 5.27501 8.61752C5.18918 8.42295 5.01 7.90356 5 7.6341C5 7.3744 5.05667 7.12367 5.18084 6.88269C5.35168 6.58637 5.6167 6.35435 5.93088 6.2241C6.14922 6.14025 6.80426 6.01081 6.82342 6.01081C7.29095 5.92695 7.94765 5.86427 8.71435 5.83333C8.85186 5.82764 8.9852 5.89683 9.05604 6.01162Z" fill="#374BFF"/>
<path opacity="0.4" d="M10.9499 6.39328C10.7941 6.14173 10.9932 5.82505 11.2924 5.83726C11.9941 5.86738 12.6125 5.91948 13.0725 5.98298C13.0825 5.99275 13.8984 6.12219 14.1742 6.27117C14.6867 6.53086 15.0001 7.04048 15.0001 7.58836V7.63395C14.9909 7.98726 14.6776 8.73866 14.6584 8.73866C14.5009 9.11722 14.2342 9.61137 13.9134 10.143C13.7684 10.3823 13.4125 10.388 13.265 10.1487L10.9499 6.39328Z" fill="#374BFF"/>
</svg>
