<svg width="20" height="20" viewBox="0 0 20 20" fill="none" xmlns="http://www.w3.org/2000/svg">
<path d="M9.05604 6.01186L12.572 11.7186C12.6504 11.8464 12.6429 12.0101 12.5504 12.1297C12.1329 12.6719 11.7095 13.1563 11.3536 13.4795C11.3536 13.4795 11.0686 13.7579 10.8878 13.8784C10.6411 14.073 10.3186 14.1666 10.0052 14.1666C9.65357 14.1666 9.32105 14.064 9.0552 13.8597C9.0077 13.8133 8.79852 13.6366 8.62768 13.4697C7.56429 12.4961 5.80754 9.9545 5.27501 8.61776C5.18918 8.42319 5.01 7.90381 5 7.63434C5 7.37465 5.05667 7.12391 5.18084 6.88294C5.35168 6.58661 5.6167 6.3546 5.93088 6.22434C6.14922 6.14049 6.80426 6.01105 6.82342 6.01105C7.29095 5.9272 7.94765 5.86451 8.71435 5.83358C8.85186 5.82788 8.9852 5.89708 9.05604 6.01186Z" fill="#FCFCFC"/>
<path opacity="0.4" d="M10.9499 6.39352C10.7941 6.14197 10.9932 5.82529 11.2924 5.8375C11.9941 5.86762 12.6125 5.91972 13.0725 5.98322C13.0825 5.99299 13.8984 6.12243 14.1742 6.27141C14.6867 6.5311 15.0001 7.04072 15.0001 7.5886V7.63419C14.9909 7.98751 14.6776 8.73891 14.6584 8.73891C14.5009 9.11746 14.2342 9.61161 13.9134 10.1432C13.7684 10.3826 13.4125 10.3882 13.265 10.1489L10.9499 6.39352Z" fill="#FCFCFC"/>
</svg>
