<svg width="48" height="48" viewBox="0 0 48 48" fill="none" xmlns="http://www.w3.org/2000/svg">
<rect x="4" y="4" width="40" height="40" rx="12" fill="white"/>
<rect x="3.5" y="3.5" width="41" height="41" rx="12.5" stroke="#1F7AE8" stroke-opacity="0.1"/>
<path d="M16 4C9.37258 4 4 9.37258 4 16V32C4 38.6274 9.37258 44 16 44H25.3024V28.5488H20.095V22.2412H25.3024V16.944C25.3024 13.0914 28.4255 9.96836 32.2781 9.96836H37.7221V15.6403H33.8266C32.6025 15.6403 31.61 16.6327 31.61 17.8569V22.2413H37.6242L36.793 28.5489H31.61V44H32C38.6274 44 44 38.6274 44 32V16C44 9.37258 38.6274 4 32 4H16Z" fill="#1F7AE8"/>
</svg>
