<svg width="48" height="48" viewBox="0 0 48 48" fill="none" xmlns="http://www.w3.org/2000/svg">
<rect x="4" y="4" width="40" height="40" rx="12" fill="#C536A4"/>
<rect x="3.5" y="3.5" width="41" height="41" rx="12.5" stroke="#C536A4" stroke-opacity="0.1"/>
<rect x="9" y="9" width="30" height="30" rx="12" fill="white"/>
<rect x="8.5" y="8.5" width="31" height="31" rx="12.5" stroke="#5EA7FF" stroke-opacity="0.1"/>
<path d="M23.9996 20.8181C22.2456 20.8181 20.8174 22.2456 20.8174 23.9996C20.8174 25.7544 22.2456 27.1826 23.9996 27.1826C25.7544 27.1826 27.1819 25.7544 27.1819 23.9996C27.1819 22.2456 25.7544 20.8181 23.9996 20.8181ZM23.9996 20.8181C22.2456 20.8181 20.8174 22.2456 20.8174 23.9996C20.8174 25.7544 22.2456 27.1826 23.9996 27.1826C25.7544 27.1826 27.1819 25.7544 27.1819 23.9996C27.1819 22.2456 25.7544 20.8181 23.9996 20.8181ZM29.301 15.6298H18.699C17.0067 15.6298 15.6298 17.0067 15.6298 18.699V29.301C15.6298 30.9933 17.0067 32.3702 18.699 32.3702H29.301C30.9933 32.3702 32.3702 30.9933 32.3702 29.301V18.699C32.3702 17.0067 30.9933 15.6298 29.301 15.6298ZM23.9996 29.511C20.9614 29.511 18.489 27.0386 18.489 23.9996C18.489 20.9614 20.9614 18.489 23.9996 18.489C27.0386 18.489 29.511 20.9614 29.511 23.9996C29.511 27.0386 27.0386 29.511 23.9996 29.511ZM29.6879 19.6286C28.9689 19.6286 28.384 19.0437 28.384 18.3247C28.384 17.6057 28.9689 17.0208 29.6879 17.0208C30.407 17.0208 30.9919 17.6057 30.9919 18.3247C30.9919 19.0437 30.407 19.6286 29.6879 19.6286ZM23.9996 20.8181C22.2456 20.8181 20.8174 22.2456 20.8174 23.9996C20.8174 25.7544 22.2456 27.1826 23.9996 27.1826C25.7544 27.1826 27.1819 25.7544 27.1819 23.9996C27.1819 22.2456 25.7544 20.8181 23.9996 20.8181ZM29.301 15.6298H18.699C17.0067 15.6298 15.6298 17.0067 15.6298 18.699V29.301C15.6298 30.9933 17.0067 32.3702 18.699 32.3702H29.301C30.9933 32.3702 32.3702 30.9933 32.3702 29.301V18.699C32.3702 17.0067 30.9933 15.6298 29.301 15.6298ZM23.9996 29.511C20.9614 29.511 18.489 27.0386 18.489 23.9996C18.489 20.9614 20.9614 18.489 23.9996 18.489C27.0386 18.489 29.511 20.9614 29.511 23.9996C29.511 27.0386 27.0386 29.511 23.9996 29.511ZM29.6879 19.6286C28.9689 19.6286 28.384 19.0437 28.384 18.3247C28.384 17.6057 28.9689 17.0208 29.6879 17.0208C30.407 17.0208 30.9919 17.6057 30.9919 18.3247C30.9919 19.0437 30.407 19.6286 29.6879 19.6286ZM23.9996 20.8181C22.2456 20.8181 20.8174 22.2456 20.8174 23.9996C20.8174 25.7544 22.2456 27.1826 23.9996 27.1826C25.7544 27.1826 27.1819 25.7544 27.1819 23.9996C27.1819 22.2456 25.7544 20.8181 23.9996 20.8181ZM18 8C12.4772 8 8 12.4772 8 18V30C8 35.5228 12.4772 40 18 40H30C35.5228 40 40 35.5228 40 30V18C40 12.4772 35.5228 8 30 8H18ZM34.6986 29.301C34.6986 32.2775 32.2775 34.6986 29.301 34.6986H18.699C15.7225 34.6986 13.3014 32.2775 13.3014 29.301V18.699C13.3014 15.7225 15.7225 13.3014 18.699 13.3014H29.301C32.2775 13.3014 34.6986 15.7225 34.6986 18.699V29.301ZM29.301 15.6298H18.699C17.0067 15.6298 15.6298 17.0067 15.6298 18.699V29.301C15.6298 30.9933 17.0067 32.3702 18.699 32.3702H29.301C30.9933 32.3702 32.3702 30.9933 32.3702 29.301V18.699C32.3702 17.0067 30.9933 15.6298 29.301 15.6298ZM23.9996 29.511C20.9614 29.511 18.489 27.0386 18.489 23.9996C18.489 20.9614 20.9614 18.489 23.9996 18.489C27.0386 18.489 29.511 20.9614 29.511 23.9996C29.511 27.0386 27.0386 29.511 23.9996 29.511ZM29.6879 19.6286C28.9689 19.6286 28.384 19.0437 28.384 18.3247C28.384 17.6057 28.9689 17.0208 29.6879 17.0208C30.407 17.0208 30.9919 17.6057 30.9919 18.3247C30.9919 19.0437 30.407 19.6286 29.6879 19.6286ZM23.9996 20.8181C22.2456 20.8181 20.8174 22.2456 20.8174 23.9996C20.8174 25.7544 22.2456 27.1826 23.9996 27.1826C25.7544 27.1826 27.1819 25.7544 27.1819 23.9996C27.1819 22.2456 25.7544 20.8181 23.9996 20.8181ZM23.9996 20.8181C22.2456 20.8181 20.8174 22.2456 20.8174 23.9996C20.8174 25.7544 22.2456 27.1826 23.9996 27.1826C25.7544 27.1826 27.1819 25.7544 27.1819 23.9996C27.1819 22.2456 25.7544 20.8181 23.9996 20.8181ZM23.9996 20.8181C22.2456 20.8181 20.8174 22.2456 20.8174 23.9996C20.8174 25.7544 22.2456 27.1826 23.9996 27.1826C25.7544 27.1826 27.1819 25.7544 27.1819 23.9996C27.1819 22.2456 25.7544 20.8181 23.9996 20.8181ZM29.301 15.6298H18.699C17.0067 15.6298 15.6298 17.0067 15.6298 18.699V29.301C15.6298 30.9933 17.0067 32.3702 18.699 32.3702H29.301C30.9933 32.3702 32.3702 30.9933 32.3702 29.301V18.699C32.3702 17.0067 30.9933 15.6298 29.301 15.6298ZM23.9996 29.511C20.9614 29.511 18.489 27.0386 18.489 23.9996C18.489 20.9614 20.9614 18.489 23.9996 18.489C27.0386 18.489 29.511 20.9614 29.511 23.9996C29.511 27.0386 27.0386 29.511 23.9996 29.511ZM29.6879 19.6286C28.9689 19.6286 28.384 19.0437 28.384 18.3247C28.384 17.6057 28.9689 17.0208 29.6879 17.0208C30.407 17.0208 30.9919 17.6057 30.9919 18.3247C30.9919 19.0437 30.407 19.6286 29.6879 19.6286ZM23.9996 20.8181C22.2456 20.8181 20.8174 22.2456 20.8174 23.9996C20.8174 25.7544 22.2456 27.1826 23.9996 27.1826C25.7544 27.1826 27.1819 25.7544 27.1819 23.9996C27.1819 22.2456 25.7544 20.8181 23.9996 20.8181ZM23.9996 20.8181C22.2456 20.8181 20.8174 22.2456 20.8174 23.9996C20.8174 25.7544 22.2456 27.1826 23.9996 27.1826C25.7544 27.1826 27.1819 25.7544 27.1819 23.9996C27.1819 22.2456 25.7544 20.8181 23.9996 20.8181ZM23.9996 20.8181C22.2456 20.8181 20.8174 22.2456 20.8174 23.9996C20.8174 25.7544 22.2456 27.1826 23.9996 27.1826C25.7544 27.1826 27.1819 25.7544 27.1819 23.9996C27.1819 22.2456 25.7544 20.8181 23.9996 20.8181ZM29.301 15.6298H18.699C17.0067 15.6298 15.6298 17.0067 15.6298 18.699V29.301C15.6298 30.9933 17.0067 32.3702 18.699 32.3702H29.301C30.9933 32.3702 32.3702 30.9933 32.3702 29.301V18.699C32.3702 17.0067 30.9933 15.6298 29.301 15.6298ZM23.9996 29.511C20.9614 29.511 18.489 27.0386 18.489 23.9996C18.489 20.9614 20.9614 18.489 23.9996 18.489C27.0386 18.489 29.511 20.9614 29.511 23.9996C29.511 27.0386 27.0386 29.511 23.9996 29.511ZM29.6879 19.6286C28.9689 19.6286 28.384 19.0437 28.384 18.3247C28.384 17.6057 28.9689 17.0208 29.6879 17.0208C30.407 17.0208 30.9919 17.6057 30.9919 18.3247C30.9919 19.0437 30.407 19.6286 29.6879 19.6286ZM23.9996 20.8181C22.2456 20.8181 20.8174 22.2456 20.8174 23.9996C20.8174 25.7544 22.2456 27.1826 23.9996 27.1826C25.7544 27.1826 27.1819 25.7544 27.1819 23.9996C27.1819 22.2456 25.7544 20.8181 23.9996 20.8181Z" fill="#C536A4"/>
</svg>
