<svg width="48" height="48" viewBox="0 0 48 48" fill="none" xmlns="http://www.w3.org/2000/svg">
<rect x="4" y="4" width="40" height="40" rx="12" fill="#5EA7FF"/>
<rect x="3.5" y="3.5" width="41" height="41" rx="12.5" stroke="#5EA7FF" stroke-opacity="0.1"/>
<path d="M12.0014 31.7683C14.1742 33.1819 16.7516 34 19.5145 34C27.2766 34 33.5688 27.5446 33.5688 19.5829C33.5688 19.3841 33.5647 19.1868 33.5572 18.9901C33.838 18.7634 35.5744 17.3357 36 16.4179C36 16.4179 34.5899 17.0191 33.2099 17.1607C33.2071 17.1607 33.2038 17.1614 33.201 17.1614C33.201 17.1614 33.2038 17.16 33.2085 17.1565C33.3357 17.0693 35.1135 15.8279 35.3542 14.3487C35.3542 14.3487 34.3568 14.8948 32.9603 15.3726C32.7292 15.4513 32.4872 15.5288 32.2376 15.6006C31.3375 14.6151 30.058 14 28.6378 14C25.9135 14 23.706 16.2638 23.706 19.0563C23.706 19.4503 23.7502 19.8339 23.8338 20.2021C23.4531 20.1861 17.6559 19.8527 13.712 14.9533C13.712 14.9533 11.3549 18.2542 15.1166 21.6485C15.1166 21.6485 13.9731 21.6018 12.9865 20.9971C12.9865 20.9971 12.6242 24.9961 16.8842 26.0186C16.8842 26.0186 16.046 26.3443 14.7087 26.112C14.7087 26.112 15.4565 29.3432 19.2414 29.6452C19.2414 29.6452 16.2485 32.4187 12 31.7679L12.0014 31.7683Z" fill="white"/>
</svg>
