<svg width="48" height="48" viewBox="0 0 48 48" fill="none" xmlns="http://www.w3.org/2000/svg">
<rect x="4" y="4" width="40" height="40" rx="12" fill="#FF0000"/>
<rect x="3.5" y="3.5" width="41" height="41" rx="12.5" stroke="#FF0000" stroke-opacity="0.1"/>
<g clip-path="url(#clip0)">
<path d="M36.4643 17.7587C36.1646 16.6448 35.2864 15.7669 34.1728 15.467C32.1382 14.9102 23.9997 14.9102 23.9997 14.9102C23.9997 14.9102 15.8615 14.9102 13.8269 15.4457C12.7347 15.7455 11.8351 16.645 11.5354 17.7587C11 19.7931 11 24.0123 11 24.0123C11 24.0123 11 28.2527 11.5354 30.2659C11.8353 31.3795 12.7133 32.2576 13.8271 32.5576C15.8829 33.1144 23.9999 33.1144 23.9999 33.1144C23.9999 33.1144 32.1382 33.1144 34.1728 32.5788C35.2866 32.2791 36.1646 31.4009 36.4645 30.2873C36.9999 28.2527 36.9999 24.0337 36.9999 24.0337C36.9999 24.0337 37.0213 19.7931 36.4643 17.7587Z" fill="white"/>
<path d="M21.4087 27.9102L28.1763 24.0124L21.4087 20.1145V27.9102Z" fill="#FF0000"/>
</g>
<defs>
<clipPath id="clip0">
<rect width="26" height="26" fill="white" transform="translate(11 11)"/>
</clipPath>
</defs>
</svg>
